<svg xmlns="http://www.w3.org/2000/svg" width="58" height="58" viewBox="0 0 58 58" fill="none">
    <rect width="58" height="58" fill="#0074B7"/>
    <path
        d="M48.7876 32.7294C48.2604 32.3238 47.6469 32.0452 46.9945 31.9153C46.3422 31.7854 45.6687 31.8076 45.0264 31.9803L37.6172 33.6839C37.7896 32.9557 37.7949 32.1979 37.6328 31.4674C37.4706 30.7369 37.1453 30.0525 36.681 29.4656C36.2168 28.8787 35.6257 28.4045 34.9522 28.0785C34.2786 27.7525 33.54 27.5833 32.7917 27.5833H23.9269C23.1824 27.5815 22.445 27.7271 21.7571 28.0119C21.0693 28.2967 20.4447 28.715 19.9195 29.2426L15.9139 33.25H10.8333C10.0819 33.25 9.36122 33.5485 8.82986 34.0799C8.29851 34.6112 8 35.3319 8 36.0833V43.1667C8 43.9181 8.29851 44.6388 8.82986 45.1701C9.36122 45.7015 10.0819 46 10.8333 46H29.25C29.3658 46.0001 29.4812 45.9858 29.5935 45.9575L40.9269 43.1242C40.9991 43.107 41.0696 43.0833 41.1376 43.0533L48.0208 40.1244L48.0988 40.089C48.7603 39.7584 49.3268 39.2649 49.7448 38.6549C50.1629 38.0449 50.4188 37.3385 50.4884 36.6022C50.5581 35.866 50.4391 35.1242 50.1428 34.4466C49.8465 33.769 49.3825 33.1781 48.7947 32.7294H48.7876ZM10.8333 36.0833H15.0833V43.1667H10.8333V36.0833ZM46.8574 37.5372L40.1282 40.4024L29.0729 43.1667H17.9167V35.2528L21.9241 31.2472C22.1862 30.9829 22.4983 30.7734 22.8421 30.6309C23.1859 30.4883 23.5547 30.4155 23.9269 30.4167H32.7917C33.3553 30.4167 33.8958 30.6406 34.2943 31.0391C34.6928 31.4376 34.9167 31.9781 34.9167 32.5417C34.9167 33.1053 34.6928 33.6458 34.2943 34.0443C33.8958 34.4428 33.3553 34.6667 32.7917 34.6667H27.8333C27.4576 34.6667 27.0973 34.8159 26.8316 35.0816C26.5659 35.3473 26.4167 35.7076 26.4167 36.0833C26.4167 36.4591 26.5659 36.8194 26.8316 37.0851C27.0973 37.3507 27.4576 37.5 27.8333 37.5H33.5C33.6066 37.4997 33.7129 37.4878 33.817 37.4646L45.6816 34.7357L45.7365 34.7216C46.0986 34.621 46.4852 34.658 46.8218 34.8253C47.1584 34.9926 47.4212 35.2785 47.5597 35.628C47.6981 35.9774 47.7025 36.3658 47.5718 36.7182C47.4412 37.0707 47.1848 37.3624 46.8521 37.5372H46.8574ZM37.0417 24.75C37.3917 24.7504 37.7411 24.722 38.0865 24.665C38.4749 25.8188 39.1856 26.8372 40.1345 27.5999C41.0834 28.3626 42.2308 28.8376 43.4411 28.9688C44.6514 29.1 45.874 28.8819 46.9643 28.3403C48.0546 27.7987 48.9671 26.9563 49.5937 25.9126C50.2204 24.8688 50.5351 23.6675 50.5007 22.4506C50.4663 21.2337 50.0841 20.052 49.3994 19.0454C48.7147 18.0388 47.756 17.2493 46.6369 16.7703C45.5177 16.2912 44.2847 16.1426 43.0837 16.3421C42.7097 15.2304 42.0363 14.2435 41.1375 13.4899C40.2388 12.7364 39.1495 12.2453 37.9897 12.0709C36.8299 11.8965 35.6444 12.0454 34.5637 12.5013C33.4831 12.9571 32.5491 13.7023 31.8647 14.6548C31.1802 15.6072 30.7718 16.73 30.6843 17.8997C30.5969 19.0693 30.8338 20.2404 31.369 21.284C31.9042 22.3277 32.7169 23.2034 33.7178 23.8149C34.7186 24.4265 35.8688 24.75 37.0417 24.75ZM47.6667 22.625C47.6667 23.3255 47.459 24.0102 47.0698 24.5926C46.6806 25.1751 46.1275 25.629 45.4803 25.8971C44.8332 26.1651 44.1211 26.2353 43.4341 26.0986C42.747 25.962 42.116 25.6246 41.6207 25.1293C41.1254 24.634 40.788 24.003 40.6514 23.3159C40.5147 22.6289 40.5849 21.9168 40.8529 21.2697C41.121 20.6225 41.5749 20.0694 42.1574 19.6802C42.7398 19.291 43.4245 19.0833 44.125 19.0833C45.0643 19.0833 45.9651 19.4565 46.6293 20.1207C47.2935 20.7849 47.6667 21.6857 47.6667 22.625ZM37.0417 14.8333C37.8143 14.8337 38.5656 15.0868 39.181 15.5538C39.7965 16.0209 40.2423 16.6765 40.4505 17.4205C39.725 17.931 39.1139 18.5874 38.6565 19.3476C38.1992 20.1078 37.9055 20.955 37.7943 21.8352C37.5469 21.8886 37.2947 21.9159 37.0417 21.9167C36.1024 21.9167 35.2015 21.5435 34.5373 20.8793C33.8731 20.2151 33.5 19.3143 33.5 18.375C33.5 17.4357 33.8731 16.5349 34.5373 15.8707C35.2015 15.2065 36.1024 14.8333 37.0417 14.8333Z"
        fill="white"/>
</svg>
