<svg xmlns="http://www.w3.org/2000/svg" width="58" height="58" viewBox="0 0 58 58" fill="none">
    <rect width="58" height="58" rx="3" fill="#0074B7"/>
    <path
        d="M48.2107 29.1488L34.7143 22.4027V14.7139C34.7143 13.1985 34.1122 11.7451 33.0406 10.6736C31.969 9.602 30.5155 9 29 9C27.4845 9 26.031 9.602 24.9594 10.6736C23.8878 11.7451 23.2857 13.1985 23.2857 14.7139V22.4027L9.78929 29.1488C9.55194 29.2675 9.35238 29.45 9.21297 29.6759C9.07356 29.9017 8.99981 30.1619 9 30.4272V36.1412C9.00012 36.3525 9.04711 36.5611 9.13759 36.7521C9.22808 36.943 9.35979 37.1115 9.52325 37.2454C9.68672 37.3793 9.87785 37.4753 10.0829 37.5264C10.2879 37.5776 10.5017 37.5826 10.7089 37.5411L23.2857 35.027V38.4071L20.8464 40.8445C20.7138 40.9772 20.6086 41.1348 20.5369 41.3082C20.4653 41.4816 20.4284 41.6675 20.4286 41.8551V47.569C20.4282 47.8032 20.4853 48.0338 20.595 48.2407C20.7047 48.4475 20.8635 48.6242 21.0575 48.7553C21.2515 48.8863 21.4748 48.9677 21.7077 48.9922C21.9405 49.0167 22.1758 48.9836 22.3929 48.8958L29 46.2513L35.6071 48.8958C35.8242 48.9836 36.0595 49.0167 36.2923 48.9922C36.5252 48.9677 36.7485 48.8863 36.9425 48.7553C37.1365 48.6242 37.2953 48.4475 37.405 48.2407C37.5147 48.0338 37.5718 47.8032 37.5714 47.569V41.8551C37.5716 41.6675 37.5348 41.4816 37.4631 41.3082C37.3914 41.1348 37.2862 40.9772 37.1536 40.8445L34.7143 38.4071V35.027L47.2911 37.5411C47.4983 37.5826 47.7121 37.5776 47.9171 37.5264C48.1222 37.4753 48.3133 37.3793 48.4767 37.2454C48.6402 37.1115 48.7719 36.943 48.8624 36.7521C48.9529 36.5611 48.9999 36.3525 49 36.1412V30.4272C49.0002 30.1619 48.9264 29.9017 48.787 29.6759C48.6476 29.45 48.4481 29.2675 48.2107 29.1488ZM46.1429 34.3984L33.5661 31.8843C33.3589 31.8428 33.1451 31.8478 32.94 31.899C32.735 31.9501 32.5439 32.0461 32.3804 32.18C32.2169 32.3139 32.0852 32.4824 31.9947 32.6733C31.9043 32.8643 31.8573 33.0729 31.8571 33.2842V38.9981C31.857 39.1858 31.8938 39.3716 31.9655 39.545C32.0372 39.7185 32.1424 39.876 32.275 40.0088L34.7143 42.4462V45.4585L29.5357 43.3854C29.1952 43.2493 28.8155 43.2493 28.475 43.3854L23.2857 45.4585V42.4462L25.725 40.0088C25.8576 39.876 25.9628 39.7185 26.0345 39.545C26.1062 39.3716 26.143 39.1858 26.1429 38.9981V33.2842C26.1427 33.0729 26.0957 32.8643 26.0053 32.6733C25.9148 32.4824 25.7831 32.3139 25.6196 32.18C25.4561 32.0461 25.265 31.9501 25.06 31.899C24.8549 31.8478 24.6411 31.8428 24.4339 31.8843L11.8571 34.3984V31.3093L25.3536 24.5633C25.5909 24.4446 25.7905 24.262 25.9299 24.0362C26.0693 23.8104 26.143 23.5502 26.1429 23.2848V14.7139C26.1429 13.9562 26.4439 13.2295 26.9797 12.6938C27.5155 12.158 28.2422 11.857 29 11.857C29.7578 11.857 30.4845 12.158 31.0203 12.6938C31.5561 13.2295 31.8571 13.9562 31.8571 14.7139V23.2848C31.857 23.5502 31.9307 23.8104 32.0701 24.0362C32.2095 24.262 32.4091 24.4446 32.6464 24.5633L46.1429 31.3093V34.3984Z"
        fill="white"/>
</svg>
