<svg xmlns="http://www.w3.org/2000/svg" width="58" height="58" viewBox="0 0 58 58" fill="none">
    <rect width="58" height="58" fill="#0074B7"/>
    <path
        d="M29 10C25.2422 10 21.5687 11.1143 18.4442 13.2021C15.3196 15.2898 12.8844 18.2572 11.4463 21.729C10.0082 25.2008 9.63197 29.0211 10.3651 32.7067C11.0982 36.3924 12.9078 39.7778 15.565 42.435C18.2222 45.0922 21.6077 46.9018 25.2933 47.6349C28.9789 48.368 32.7992 47.9918 36.271 46.5537C39.7428 45.1156 42.7102 42.6804 44.7979 39.5558C46.8857 36.4313 48 32.7578 48 29C47.9947 23.9625 45.9912 19.1329 42.4292 15.5708C38.8671 12.0088 34.0375 10.0053 29 10ZM29 45.0769C25.8203 45.0769 22.712 44.134 20.0681 42.3675C17.4243 40.6009 15.3637 38.09 14.1469 35.1524C12.93 32.2147 12.6117 28.9822 13.232 25.8635C13.8523 22.7449 15.3835 19.8803 17.6319 17.6319C19.8803 15.3835 22.7449 13.8523 25.8636 13.232C28.9822 12.6117 32.2147 12.93 35.1524 14.1469C38.09 15.3637 40.6009 17.4243 42.3675 20.0681C44.134 22.712 45.0769 25.8203 45.0769 29C45.0721 33.2624 43.3767 37.3488 40.3628 40.3628C37.3488 43.3767 33.2624 45.0721 29 45.0769ZM31.9231 37.7692C31.9231 38.1568 31.7691 38.5286 31.495 38.8027C31.2209 39.0768 30.8492 39.2308 30.4615 39.2308C29.6863 39.2308 28.9428 38.9228 28.3946 38.3746C27.8464 37.8264 27.5385 37.0829 27.5385 36.3077V29C27.1508 29 26.7791 28.846 26.505 28.5719C26.2309 28.2978 26.0769 27.9261 26.0769 27.5385C26.0769 27.1508 26.2309 26.7791 26.505 26.505C26.7791 26.2309 27.1508 26.0769 27.5385 26.0769C28.3137 26.0769 29.0572 26.3849 29.6054 26.9331C30.1536 27.4813 30.4615 28.2247 30.4615 29V36.3077C30.8492 36.3077 31.2209 36.4617 31.495 36.7358C31.7691 37.0099 31.9231 37.3816 31.9231 37.7692ZM26.0769 20.9615C26.0769 20.5279 26.2055 20.1041 26.4464 19.7436C26.6873 19.383 27.0297 19.102 27.4303 18.9361C27.8309 18.7702 28.2717 18.7268 28.6969 18.8114C29.1222 18.8959 29.5128 19.1047 29.8194 19.4113C30.126 19.7179 30.3348 20.1086 30.4194 20.5338C30.504 20.9591 30.4606 21.3999 30.2947 21.8005C30.1287 22.2011 29.8477 22.5435 29.4872 22.7844C29.1267 23.0253 28.7028 23.1538 28.2692 23.1538C27.6878 23.1538 27.1302 22.9229 26.719 22.5117C26.3079 22.1006 26.0769 21.543 26.0769 20.9615Z"
        fill="white"/>
</svg>
