<svg xmlns="http://www.w3.org/2000/svg" width="58" height="58" viewBox="0 0 58 58" fill="none">
    <rect width="58" height="58" fill="#0074B7"/>
    <path
        d="M44.2222 18H13.5556C12.8778 18 12.2278 18.2692 11.7485 18.7485C11.2692 19.2278 11 19.8778 11 20.5556V32.0556C11 32.7333 11.2692 33.3833 11.7485 33.8626C12.2278 34.3419 12.8778 34.6111 13.5556 34.6111H17.3889V39.7222C17.3889 40.0611 17.5235 40.3861 17.7631 40.6257C18.0028 40.8654 18.3278 41 18.6667 41C19.0056 41 19.3306 40.8654 19.5702 40.6257C19.8098 40.3861 19.9444 40.0611 19.9444 39.7222V34.6111H37.8333V39.7222C37.8333 40.0611 37.968 40.3861 38.2076 40.6257C38.4472 40.8654 38.7722 41 39.1111 41C39.45 41 39.775 40.8654 40.0146 40.6257C40.2543 40.3861 40.3889 40.0611 40.3889 39.7222V34.6111H44.2222C44.9 34.6111 45.55 34.3419 46.0293 33.8626C46.5085 33.3833 46.7778 32.7333 46.7778 32.0556V20.5556C46.7778 19.8778 46.5085 19.2278 46.0293 18.7485C45.55 18.2692 44.9 18 44.2222 18ZM44.2222 28.3324L36.4453 20.5556H44.2222V28.3324ZM21.3324 20.5556L32.8324 32.0556H24.9453L13.5556 20.6658V20.5556H21.3324ZM13.5556 24.2787L21.3324 32.0556H13.5556V24.2787ZM44.2222 32.0556H36.4453L24.9453 20.5556H32.8324L44.2222 31.9469V32.0556Z"
        fill="white"/>
</svg>
