<svg xmlns="http://www.w3.org/2000/svg" width="58" height="58" viewBox="0 0 58 58" fill="none">
    <rect width="58" height="58" fill="#0074B7"/>
    <path
        d="M45.1 16H12.7C11.9839 16 11.2972 16.2845 10.7908 16.7908C10.2845 17.2972 10 17.9839 10 18.7V40.3C10 41.0161 10.2845 41.7028 10.7908 42.2092C11.2972 42.7155 11.9839 43 12.7 43H45.1C45.8161 43 46.5028 42.7155 47.0092 42.2092C47.5155 41.7028 47.8 41.0161 47.8 40.3V18.7C47.8 17.9839 47.5155 17.2972 47.0092 16.7908C46.5028 16.2845 45.8161 16 45.1 16ZM45.1 18.7V22.75H12.7V18.7H45.1ZM45.1 40.3H12.7V25.45H45.1V40.3ZM42.4 36.25C42.4 36.608 42.2578 36.9514 42.0046 37.2046C41.7514 37.4578 41.408 37.6 41.05 37.6H35.65C35.2919 37.6 34.9486 37.4578 34.6954 37.2046C34.4422 36.9514 34.3 36.608 34.3 36.25C34.3 35.892 34.4422 35.5486 34.6954 35.2954C34.9486 35.0422 35.2919 34.9 35.65 34.9H41.05C41.408 34.9 41.7514 35.0422 42.0046 35.2954C42.2578 35.5486 42.4 35.892 42.4 36.25ZM31.6 36.25C31.6 36.608 31.4578 36.9514 31.2046 37.2046C30.9514 37.4578 30.608 37.6 30.25 37.6H27.55C27.192 37.6 26.8486 37.4578 26.5954 37.2046C26.3422 36.9514 26.2 36.608 26.2 36.25C26.2 35.892 26.3422 35.5486 26.5954 35.2954C26.8486 35.0422 27.192 34.9 27.55 34.9H30.25C30.608 34.9 30.9514 35.0422 31.2046 35.2954C31.4578 35.5486 31.6 35.892 31.6 36.25Z"
        fill="white"/>
</svg>
