<svg xmlns="http://www.w3.org/2000/svg" width="58" height="58" viewBox="0 0 58 58" fill="none">
    <rect width="58" height="58" fill="#0074B7"/>
    <path
        d="M43.7778 23H38V18.6667C38 16.3681 37.0869 14.1637 35.4616 12.5384C33.8363 10.9131 31.6319 10 29.3333 10C27.0348 10 24.8304 10.9131 23.2051 12.5384C21.5798 14.1637 20.6667 16.3681 20.6667 18.6667V23H14.8889C14.1227 23 13.3879 23.3044 12.8461 23.8461C12.3044 24.3879 12 25.1227 12 25.8889V46.1111C12 46.8773 12.3044 47.6121 12.8461 48.1539C13.3879 48.6956 14.1227 49 14.8889 49H43.7778C44.544 49 45.2788 48.6956 45.8205 48.1539C46.3623 47.6121 46.6667 46.8773 46.6667 46.1111V25.8889C46.6667 25.1227 46.3623 24.3879 45.8205 23.8461C45.2788 23.3044 44.544 23 43.7778 23ZM23.5556 18.6667C23.5556 17.1343 24.1643 15.6647 25.2478 14.5812C26.3314 13.4976 27.801 12.8889 29.3333 12.8889C30.8657 12.8889 32.3353 13.4976 33.4188 14.5812C34.5024 15.6647 35.1111 17.1343 35.1111 18.6667V23H23.5556V18.6667ZM43.7778 46.1111H14.8889V25.8889H43.7778V46.1111Z"
        fill="white"/>
</svg>
