<svg xmlns="http://www.w3.org/2000/svg" width="58" height="58" viewBox="0 0 58 58" fill="none">
    <rect width="58" height="58" rx="3" fill="#0074B7"/>
    <path
        d="M47.6944 24.4449L40.4839 15.9205C40.2461 15.6323 39.9489 15.4005 39.6133 15.2414C39.2776 15.0824 38.9116 15 38.5412 15H12.5333C11.8615 15 11.2171 15.2708 10.742 15.7529C10.2669 16.2349 10 16.8887 10 17.5705V35.5637C10 36.2455 10.2669 36.8993 10.742 37.3813C11.2171 37.8634 11.8615 38.1342 12.5333 38.1342H15.225C15.504 39.2401 16.1379 40.2202 17.0266 40.9201C17.9153 41.6201 19.0083 42 20.1333 42C21.2583 42 22.3514 41.6201 23.2401 40.9201C24.1288 40.2202 24.7626 39.2401 25.0417 38.1342H32.9583C33.2374 39.2401 33.8712 40.2202 34.7599 40.9201C35.6486 41.6201 36.7417 42 37.8667 42C38.9917 42 40.0847 41.6201 40.9734 40.9201C41.8621 40.2202 42.496 39.2401 42.775 38.1342H45.4667C46.1385 38.1342 46.7829 37.8634 47.258 37.3813C47.7331 36.8993 48 36.2455 48 35.5637V25.2819C48 24.9748 47.8916 24.6779 47.6944 24.4449ZM43.9767 23.9966H35.3333V17.5705H38.5412L43.9767 23.9966ZM23.9333 23.9966V17.5705H32.8V23.9966H23.9333ZM21.4 17.5705V23.9966H12.5333V17.5705H21.4ZM20.1333 39.4195C19.6323 39.4195 19.1425 39.2687 18.7259 38.9862C18.3093 38.7038 17.9846 38.3024 17.7928 37.8327C17.6011 37.363 17.5509 36.8461 17.6487 36.3475C17.7464 35.8489 17.9877 35.3909 18.342 35.0314C18.6963 34.6719 19.1477 34.4271 19.6391 34.3279C20.1305 34.2287 20.6399 34.2796 21.1028 34.4742C21.5657 34.6687 21.9614 34.9982 22.2397 35.4209C22.5181 35.8436 22.6667 36.3406 22.6667 36.849C22.6667 37.5307 22.3998 38.1845 21.9247 38.6666C21.4496 39.1486 20.8052 39.4195 20.1333 39.4195ZM37.8667 39.4195C37.3656 39.4195 36.8758 39.2687 36.4592 38.9862C36.0426 38.7038 35.7179 38.3024 35.5262 37.8327C35.3344 37.363 35.2843 36.8461 35.382 36.3475C35.4798 35.8489 35.721 35.3909 36.0753 35.0314C36.4296 34.6719 36.881 34.4271 37.3724 34.3279C37.8639 34.2287 38.3732 34.2796 38.8361 34.4742C39.299 34.6687 39.6947 34.9982 39.9731 35.4209C40.2514 35.8436 40.4 36.3406 40.4 36.849C40.4 37.5307 40.1331 38.1845 39.658 38.6666C39.1829 39.1486 38.5385 39.4195 37.8667 39.4195ZM42.775 35.5637C42.496 34.4579 41.8621 33.4778 40.9734 32.7778C40.0847 32.0779 38.9917 31.698 37.8667 31.698C36.7417 31.698 35.6486 32.0779 34.7599 32.7778C33.8712 33.4778 33.2374 34.4579 32.9583 35.5637H25.0417C24.7626 34.4579 24.1288 33.4778 23.2401 32.7778C22.3514 32.0779 21.2583 31.698 20.1333 31.698C19.0083 31.698 17.9153 32.0779 17.0266 32.7778C16.1379 33.4778 15.504 34.4579 15.225 35.5637H12.5333V26.5671H45.4667V35.5637H42.775Z"
        fill="white"/>
</svg>
