<svg xmlns="http://www.w3.org/2000/svg" width="58" height="58" viewBox="0 0 58 58" fill="none">
    <rect width="58" height="58" fill="#0074B7"/>
    <path
        d="M36.5001 26.1666C36.5001 24.7656 36.0847 23.3961 35.3064 22.2313C34.528 21.0664 33.4218 20.1585 32.1274 19.6224C30.8331 19.0863 29.4089 18.946 28.0349 19.2193C26.6608 19.4926 25.3987 20.1672 24.4081 21.1579C23.4174 22.1485 22.7428 23.4106 22.4695 24.7847C22.1962 26.1587 22.3365 27.5829 22.8726 28.8773C23.4087 30.1716 24.3166 31.2778 25.4815 32.0562C26.6463 32.8345 28.0158 33.2499 29.4168 33.2499C31.2954 33.2499 33.0971 32.5037 34.4255 31.1753C35.7538 29.8469 36.5001 28.0452 36.5001 26.1666ZM25.1667 26.1666C25.1667 25.326 25.416 24.5043 25.883 23.8054C26.35 23.1065 27.0138 22.5617 27.7903 22.2401C28.5669 21.9184 29.4215 21.8342 30.2459 21.9982C31.0703 22.1622 31.8276 22.567 32.422 23.1613C33.0164 23.7557 33.4211 24.513 33.5851 25.3374C33.7491 26.1618 33.6649 27.0164 33.3433 27.793C33.0216 28.5696 32.4769 29.2333 31.7779 29.7003C31.079 30.1673 30.2573 30.4166 29.4168 30.4166C28.2896 30.4166 27.2086 29.9688 26.4115 29.1718C25.6145 28.3748 25.1667 27.2937 25.1667 26.1666ZM46.4168 43.1667H30.8334V40.2625C34.4497 39.899 37.7879 38.1596 40.1578 35.404C42.5276 32.6484 43.7477 29.0874 43.5657 25.4575C43.3838 21.8276 41.8137 18.4065 39.1802 15.9017C36.5467 13.3969 33.0512 12 29.4168 12C25.7823 12 22.2868 13.3969 19.6533 15.9017C17.0198 18.4065 15.4497 21.8276 15.2678 25.4575C15.0858 29.0874 16.3059 32.6484 18.6758 35.404C21.0456 38.1596 24.3838 39.899 28.0001 40.2625V43.1667H12.4167C12.0409 43.1667 11.6806 43.3159 11.4149 43.5816C11.1493 43.8473 11 44.2076 11 44.5833C11 44.9591 11.1493 45.3194 11.4149 45.5851C11.6806 45.8507 12.0409 46 12.4167 46H46.4168C46.7926 46 47.1529 45.8507 47.4186 45.5851C47.6843 45.3194 47.8335 44.9591 47.8335 44.5833C47.8335 44.2076 47.6843 43.8473 47.4186 43.5816C47.1529 43.3159 46.7926 43.1667 46.4168 43.1667ZM18.0834 26.1666C18.0834 23.925 18.7481 21.7338 19.9934 19.8701C21.2387 18.0063 23.0088 16.5537 25.0797 15.6959C27.1506 14.8381 29.4293 14.6136 31.6278 15.0509C33.8263 15.4882 35.8457 16.5676 37.4307 18.1526C39.0157 19.7376 40.0951 21.7571 40.5324 23.9555C40.9697 26.154 40.7452 28.4328 39.8874 30.5037C39.0297 32.5746 37.577 34.3446 35.7133 35.5899C33.8495 36.8353 31.6583 37.5 29.4168 37.5C26.412 37.4967 23.5312 36.3016 21.4065 34.1769C19.2818 32.0521 18.0867 29.1714 18.0834 26.1666Z"
        fill="white"/>
</svg>
